# xmcd
# Copyright (c) 1998 CDDB Inc.
#
# Track frame offsets:
#	183
#	11763
#	25918
#	39793
#	55068
#	68438
#	82845
#	96490
#	110023
#	123310
#	136470
#	149045
#	158883
#	169550
#	181693
#	194275
#	204675
#
# Disc length: 2906 seconds
#
# Revision: 1
# Processed by: cddbd v1.4b41PL1 Copyright (c) Steve Scherf et al.
# Submitted via: audiograbber 1.70
#
DISCID=e30b5811
DTITLE=Howlin' Wolf - 16 Great Songs
DYEAR=1900
DGENRE=
TTITLE0=Moanin' At Midnight
TTITLE1=My Life
TTITLE2=Highway 49
TTITLE3=Commit A Crime
TTITLE4=My Last Affair
TTITLE5=I Walked From Dallas
TTITLE6=Poor Boy
TTITLE7=My Baby Walked Off
TTITLE8=Tell Me
TTITLE9=Worried About You
TTITLE10=Little Baby
TTITLE11=Down In The Bottom
TTITLE12=Built For Comfort
TTITLE13=Dorothy Mae
TTITLE14=My Mind Is Ramblin'
TTITLE15=Do The Do
TTITLE16=Everybody's In The Mood
EXTD=
EXTT0=
EXTT1=
EXTT2=
EXTT3=
EXTT4=
EXTT5=
EXTT6=
EXTT7=
EXTT8=
EXTT9=
EXTT10=
EXTT11=
EXTT12=
EXTT13=
EXTT14=
EXTT15=
EXTT16=
PLAYORDER=
